<svg width="211" height="62" viewBox="0 0 211 62" fill="none" xmlns="http://www.w3.org/2000/svg">
<path d="M53.903 44.1833V19.3142H56.5592V44.1833H53.903ZM62.6354 44.1833V26.3201H65.1588V29.3748H65.192C65.4576 28.4893 66.1106 27.6593 67.151 26.8845C68.1914 26.1098 69.4309 25.7224 70.8698 25.7224C72.5299 25.7224 73.8912 26.2426 74.9537 27.283C76.0384 28.3233 76.5807 30.1052 76.5807 32.6287V44.1833H73.9908V33.0603C73.9908 29.6072 72.7513 27.8806 70.2721 27.8806C68.8997 27.8806 67.7155 28.434 66.7194 29.5408C65.7233 30.6475 65.2252 31.9757 65.2252 33.5251V44.1833H62.6354ZM79.3033 26.3201H82.1588L86.0104 37.5095C86.1875 38.0629 86.4309 38.8376 86.7408 39.8337C87.0507 40.8298 87.2721 41.5382 87.4049 41.9587H87.4713C87.6263 41.4496 87.8698 40.7081 88.2018 39.7341C88.5338 38.7602 88.7773 38.0186 88.9323 37.5095L92.7174 26.3201H95.5729L88.9987 44.1833H85.8776L79.3033 26.3201ZM97.0338 40.6638L98.9596 39.5349C100.266 41.5935 102.036 42.6228 104.272 42.6228C105.622 42.6228 106.696 42.3793 107.493 41.8923C108.312 41.4054 108.721 40.697 108.721 39.7673C108.721 39.3689 108.622 39.0147 108.422 38.7048C108.223 38.3728 108.002 38.1072 107.758 37.908C107.537 37.6866 107.128 37.4542 106.53 37.2107C105.932 36.9451 105.434 36.7569 105.036 36.6462C104.659 36.5134 104.029 36.3031 103.143 36.0154C102.368 35.7719 101.704 35.5284 101.151 35.2849C100.598 35.0414 100.022 34.7205 99.4244 34.322C98.8268 33.9014 98.3619 33.3923 98.0299 32.7947C97.72 32.197 97.5651 31.5108 97.5651 30.7361C97.5651 29.253 98.1627 28.0466 99.358 27.1169C100.553 26.1873 102.191 25.7224 104.272 25.7224C105.733 25.7224 107.072 26.1098 108.29 26.8845C109.507 27.6593 110.381 28.5668 110.913 29.6072L109.186 30.7361C108.721 29.9613 108.046 29.2973 107.161 28.7439C106.297 28.1684 105.335 27.8806 104.272 27.8806C102.922 27.8806 101.893 28.1462 101.184 28.6775C100.498 29.1866 100.155 29.8839 100.155 30.7693C100.155 31.2784 100.288 31.7432 100.553 32.1638C100.819 32.5623 101.217 32.9164 101.749 33.2263C102.302 33.5141 102.8 33.7465 103.243 33.9236C103.708 34.0785 104.316 34.2778 105.069 34.5212C105.711 34.7205 106.275 34.9086 106.762 35.0857C107.271 35.2628 107.825 35.5063 108.422 35.8162C109.02 36.1261 109.518 36.4581 109.917 36.8123C110.315 37.1443 110.647 37.5759 110.913 38.1072C111.178 38.6163 111.311 39.1697 111.311 39.7673C111.311 41.184 110.68 42.3793 109.419 43.3533C108.179 44.3051 106.464 44.781 104.272 44.781C102.678 44.781 101.262 44.4268 100.022 43.7185C98.7825 42.988 97.7864 41.9698 97.0338 40.6638ZM113.137 28.4783V26.3201H116.258V20.6091H118.848V26.3201H123.563V28.4783H118.848V38.9373C118.848 40.044 119.059 40.8298 119.479 41.2947C119.9 41.7595 120.575 41.9919 121.505 41.9919H123.563V44.1833H121.172C117.896 44.1833 116.258 42.5121 116.258 39.1697V28.4783H113.137ZM128.643 35.2517C128.643 37.5095 129.163 39.3025 130.204 40.6306C131.244 41.9587 132.539 42.6228 134.089 42.6228C135.616 42.6228 136.9 41.9587 137.94 40.6306C139.003 39.3025 139.534 37.5095 139.534 35.2517C139.534 32.9496 139.003 31.1456 137.94 29.8396C136.878 28.5336 135.594 27.8806 134.089 27.8806C132.561 27.8806 131.266 28.5336 130.204 29.8396C129.163 31.1456 128.643 32.9496 128.643 35.2517ZM126.053 35.2517C126.053 32.5291 126.751 30.2602 128.145 28.4451C129.562 26.63 131.543 25.7224 134.089 25.7224C136.612 25.7224 138.582 26.63 139.999 28.4451C141.415 30.2602 142.124 32.5291 142.124 35.2517C142.124 36.4028 141.969 37.5206 141.659 38.6052C141.371 39.6899 140.917 40.7081 140.297 41.6599C139.7 42.5896 138.859 43.3422 137.774 43.9177C136.712 44.4932 135.483 44.781 134.089 44.781C132.716 44.781 131.488 44.5043 130.403 43.9509C129.34 43.3754 128.499 42.6228 127.88 41.6931C127.282 40.7413 126.828 39.7231 126.518 38.6384C126.208 37.5538 126.053 36.4249 126.053 35.2517ZM146.241 44.1833V26.3201H148.698V28.9099C149.052 28.113 149.639 27.3826 150.458 26.7185C151.277 26.0544 152.328 25.7224 153.612 25.7224C154.564 25.7224 155.405 25.8774 156.135 26.1873V28.5115C155.339 28.2016 154.497 28.0466 153.612 28.0466C152.107 28.0466 150.934 28.6111 150.092 29.74C149.251 30.8689 148.831 32.363 148.831 34.2224V44.1833H146.241ZM164.27 44.1833L172.438 31.4001L164.669 19.3142H167.989L171.641 25.324C171.951 25.8331 172.394 26.5857 172.969 27.5818C173.567 28.5779 173.921 29.1755 174.032 29.3748H174.165C174.452 28.8656 174.873 28.1573 175.426 27.2498C176.002 26.3201 176.4 25.6781 176.622 25.324L180.274 19.3142H183.594L175.758 31.4001L183.993 44.1833H180.739L176.821 37.9412C176.511 37.432 176.035 36.6462 175.393 35.5837C174.751 34.4991 174.342 33.8129 174.165 33.5251H174.032C173.124 35.0968 172.25 36.5688 171.409 37.9412L167.524 44.1833H164.27Z" fill="black"/>
<rect x="-0.363481" y="-0.00289924" width="16.3305" height="16.3151" transform="matrix(-0.732438 0.680834 -0.721485 -0.69243 23.8273 11.8859)" fill="#3B55E9" stroke="#3B55E9" stroke-width="0.5"/>
<rect x="-0.363481" y="-0.00289924" width="16.3305" height="16.3151" transform="matrix(-0.732438 0.680834 -0.721485 -0.69243 23.8273 34.0563)" fill="#3B55E9" stroke="#3B55E9" stroke-width="0.5"/>
<rect x="-0.363481" y="-0.00289924" width="16.3305" height="16.3151" transform="matrix(-0.732438 0.680834 -0.721485 -0.69243 41.123 23.5543)" fill="#3B55E9" stroke="#3B55E9" stroke-width="0.5"/>
<rect width="16.8305" height="16.8151" transform="matrix(-0.732438 0.680834 -0.721485 -0.69243 41.7548 45.4822)" fill="#3B55E9"/>
</svg>
