<svg width="148" height="46" viewBox="0 0 148 46" fill="none" xmlns="http://www.w3.org/2000/svg">
<path d="M38.4375 31V13.4453H40.3125V31H38.4375ZM44.6016 31V18.3906H46.3828V20.5469H46.4062C46.5938 19.9219 47.0547 19.3359 47.7891 18.7891C48.5234 18.2422 49.3984 17.9688 50.4141 17.9688C51.5859 17.9688 52.5469 18.3359 53.2969 19.0703C54.0625 19.8047 54.4453 21.0625 54.4453 22.8438V31H52.6172V23.1484C52.6172 20.7109 51.7422 19.4922 49.9922 19.4922C49.0234 19.4922 48.1875 19.8828 47.4844 20.6641C46.7812 21.4453 46.4297 22.3828 46.4297 23.4766V31H44.6016ZM56.3672 18.3906H58.3828L61.1016 26.2891C61.2266 26.6797 61.3984 27.2266 61.6172 27.9297C61.8359 28.6328 61.9922 29.1328 62.0859 29.4297H62.1328C62.2422 29.0703 62.4141 28.5469 62.6484 27.8594C62.8828 27.1719 63.0547 26.6484 63.1641 26.2891L65.8359 18.3906H67.8516L63.2109 31H61.0078L56.3672 18.3906ZM68.8828 28.5156L70.2422 27.7188C71.1641 29.1719 72.4141 29.8984 73.9922 29.8984C74.9453 29.8984 75.7031 29.7266 76.2656 29.3828C76.8438 29.0391 77.1328 28.5391 77.1328 27.8828C77.1328 27.6016 77.0625 27.3516 76.9219 27.1328C76.7812 26.8984 76.625 26.7109 76.4531 26.5703C76.2969 26.4141 76.0078 26.25 75.5859 26.0781C75.1641 25.8906 74.8125 25.7578 74.5312 25.6797C74.2656 25.5859 73.8203 25.4375 73.1953 25.2344C72.6484 25.0625 72.1797 24.8906 71.7891 24.7188C71.3984 24.5469 70.9922 24.3203 70.5703 24.0391C70.1484 23.7422 69.8203 23.3828 69.5859 22.9609C69.3672 22.5391 69.2578 22.0547 69.2578 21.5078C69.2578 20.4609 69.6797 19.6094 70.5234 18.9531C71.3672 18.2969 72.5234 17.9688 73.9922 17.9688C75.0234 17.9688 75.9688 18.2422 76.8281 18.7891C77.6875 19.3359 78.3047 19.9766 78.6797 20.7109L77.4609 21.5078C77.1328 20.9609 76.6562 20.4922 76.0312 20.1016C75.4219 19.6953 74.7422 19.4922 73.9922 19.4922C73.0391 19.4922 72.3125 19.6797 71.8125 20.0547C71.3281 20.4141 71.0859 20.9062 71.0859 21.5312C71.0859 21.8906 71.1797 22.2188 71.3672 22.5156C71.5547 22.7969 71.8359 23.0469 72.2109 23.2656C72.6016 23.4688 72.9531 23.6328 73.2656 23.7578C73.5938 23.8672 74.0234 24.0078 74.5547 24.1797C75.0078 24.3203 75.4062 24.4531 75.75 24.5781C76.1094 24.7031 76.5 24.875 76.9219 25.0938C77.3438 25.3125 77.6953 25.5469 77.9766 25.7969C78.2578 26.0312 78.4922 26.3359 78.6797 26.7109C78.8672 27.0703 78.9609 27.4609 78.9609 27.8828C78.9609 28.8828 78.5156 29.7266 77.625 30.4141C76.75 31.0859 75.5391 31.4219 73.9922 31.4219C72.8672 31.4219 71.8672 31.1719 70.9922 30.6719C70.1172 30.1562 69.4141 29.4375 68.8828 28.5156ZM80.25 19.9141V18.3906H82.4531V14.3594H84.2812V18.3906H87.6094V19.9141H84.2812V27.2969C84.2812 28.0781 84.4297 28.6328 84.7266 28.9609C85.0234 29.2891 85.5 29.4531 86.1562 29.4531H87.6094V31H85.9219C83.6094 31 82.4531 29.8203 82.4531 27.4609V19.9141H80.25ZM91.1953 24.6953C91.1953 26.2891 91.5625 27.5547 92.2969 28.4922C93.0312 29.4297 93.9453 29.8984 95.0391 29.8984C96.1172 29.8984 97.0234 29.4297 97.7578 28.4922C98.5078 27.5547 98.8828 26.2891 98.8828 24.6953C98.8828 23.0703 98.5078 21.7969 97.7578 20.875C97.0078 19.9531 96.1016 19.4922 95.0391 19.4922C93.9609 19.4922 93.0469 19.9531 92.2969 20.875C91.5625 21.7969 91.1953 23.0703 91.1953 24.6953ZM89.3672 24.6953C89.3672 22.7734 89.8594 21.1719 90.8438 19.8906C91.8438 18.6094 93.2422 17.9688 95.0391 17.9688C96.8203 17.9688 98.2109 18.6094 99.2109 19.8906C100.211 21.1719 100.711 22.7734 100.711 24.6953C100.711 25.5078 100.602 26.2969 100.383 27.0625C100.18 27.8281 99.8594 28.5469 99.4219 29.2188C99 29.875 98.4062 30.4062 97.6406 30.8125C96.8906 31.2188 96.0234 31.4219 95.0391 31.4219C94.0703 31.4219 93.2031 31.2266 92.4375 30.8359C91.6875 30.4297 91.0938 29.8984 90.6562 29.2422C90.2344 28.5703 89.9141 27.8516 89.6953 27.0859C89.4766 26.3203 89.3672 25.5234 89.3672 24.6953ZM103.617 31V18.3906H105.352V20.2188C105.602 19.6562 106.016 19.1406 106.594 18.6719C107.172 18.2031 107.914 17.9688 108.82 17.9688C109.492 17.9688 110.086 18.0781 110.602 18.2969V19.9375C110.039 19.7188 109.445 19.6094 108.82 19.6094C107.758 19.6094 106.93 20.0078 106.336 20.8047C105.742 21.6016 105.445 22.6562 105.445 23.9688V31H103.617ZM116.344 31L122.109 21.9766L116.625 13.4453H118.969L121.547 17.6875C121.766 18.0469 122.078 18.5781 122.484 19.2812C122.906 19.9844 123.156 20.4062 123.234 20.5469H123.328C123.531 20.1875 123.828 19.6875 124.219 19.0469C124.625 18.3906 124.906 17.9375 125.062 17.6875L127.641 13.4453H129.984L124.453 21.9766L130.266 31H127.969L125.203 26.5938C124.984 26.2344 124.648 25.6797 124.195 24.9297C123.742 24.1641 123.453 23.6797 123.328 23.4766H123.234C122.594 24.5859 121.977 25.625 121.383 26.5938L118.641 31H116.344Z" fill="black"/>
<rect x="17.5122" y="8.59825" width="11.5677" height="11.5677" transform="rotate(135.458 17.5122 8.59825)" fill="#3B55E9" stroke="#3B55E9" stroke-width="0.5"/>
<rect x="17.5122" y="24.9757" width="11.5677" height="11.5677" transform="rotate(135.458 17.5122 24.9757)" fill="#3B55E9" stroke="#3B55E9" stroke-width="0.5"/>
<rect x="29.5798" y="17.2179" width="11.5677" height="11.5677" transform="rotate(135.458 29.5798 17.2179)" fill="#3B55E9" stroke="#3B55E9" stroke-width="0.5"/>
<rect x="29.5798" y="33.5953" width="11.5677" height="11.5677" transform="rotate(135.458 29.5798 33.5953)" fill="#3B55E9" stroke="#3B55E9" stroke-width="0.5"/>
</svg>
